<?xml version="1.0" encoding="utf-8" ?>
<svg baseProfile="tiny" height="100%" version="1.2" width="100%" xmlns="http://www.w3.org/2000/svg" xmlns:ev="http://www.w3.org/2001/xml-events" xmlns:xlink="http://www.w3.org/1999/xlink"><defs /><path d="M 371,295 L 370,296 L 368,296 L 367,297 L 366,297 L 365,298 L 364,298 L 358,304 L 358,305 L 357,306 L 357,307 L 356,308 L 356,310 L 355,311 L 355,319 L 356,320 L 356,322 L 357,323 L 357,324 L 359,326 L 359,327 L 364,332 L 365,332 L 366,333 L 368,333 L 369,334 L 381,334 L 382,333 L 384,333 L 385,332 L 386,332 L 388,330 L 389,330 L 391,328 L 391,327 L 392,326 L 392,325 L 393,324 L 393,323 L 394,322 L 394,318 L 395,317 L 395,314 L 394,313 L 394,308 L 393,307 L 393,306 L 392,305 L 392,304 L 391,303 L 391,302 L 389,300 L 388,300 L 386,298 L 385,298 L 384,297 L 383,297 L 382,296 L 380,296 L 379,295 Z" fill="none" stroke="black" stroke-width="10" /><path d="M 369,199 L 368,200 L 357,200 L 356,201 L 351,201 L 350,202 L 347,202 L 346,203 L 344,203 L 343,204 L 341,204 L 340,205 L 338,205 L 337,206 L 334,206 L 333,207 L 331,207 L 330,208 L 329,208 L 328,209 L 327,209 L 325,211 L 324,211 L 323,212 L 322,212 L 321,213 L 320,213 L 318,215 L 317,215 L 316,216 L 315,216 L 314,217 L 313,217 L 311,219 L 310,219 L 307,222 L 306,222 L 299,229 L 298,229 L 292,235 L 292,236 L 290,238 L 290,239 L 289,240 L 289,242 L 288,243 L 288,252 L 289,253 L 289,255 L 290,256 L 290,257 L 291,258 L 291,259 L 296,264 L 297,264 L 298,265 L 299,265 L 300,266 L 303,266 L 304,267 L 312,267 L 313,266 L 316,266 L 317,265 L 318,265 L 320,263 L 321,263 L 327,257 L 328,257 L 334,251 L 335,251 L 337,249 L 338,249 L 339,248 L 340,248 L 342,246 L 343,246 L 344,245 L 345,245 L 346,244 L 348,244 L 349,243 L 351,243 L 352,242 L 354,242 L 355,241 L 358,241 L 359,240 L 366,240 L 367,239 L 376,239 L 377,238 L 382,238 L 383,237 L 384,237 L 385,236 L 386,236 L 387,235 L 388,235 L 391,232 L 391,231 L 392,230 L 392,229 L 393,228 L 393,226 L 394,225 L 394,213 L 393,212 L 393,210 L 392,209 L 392,208 L 387,203 L 386,203 L 385,202 L 384,202 L 383,201 L 382,201 L 381,200 L 379,200 L 378,199 Z" fill="none" stroke="black" stroke-width="10" /><path d="M 137,174 L 136,175 L 134,175 L 133,176 L 132,176 L 131,177 L 130,177 L 129,178 L 128,178 L 126,180 L 125,180 L 125,181 L 123,183 L 123,184 L 122,185 L 122,186 L 121,187 L 121,188 L 120,189 L 120,191 L 119,192 L 119,194 L 118,195 L 118,197 L 117,198 L 117,200 L 116,201 L 116,203 L 115,204 L 115,206 L 114,207 L 114,209 L 113,210 L 113,212 L 112,213 L 112,215 L 111,216 L 111,218 L 110,219 L 110,221 L 109,222 L 109,224 L 108,225 L 108,227 L 107,228 L 107,230 L 106,231 L 106,233 L 105,234 L 105,236 L 104,237 L 104,239 L 103,240 L 103,242 L 102,243 L 102,245 L 101,246 L 101,248 L 100,249 L 100,251 L 99,252 L 99,254 L 98,255 L 98,257 L 97,258 L 97,260 L 96,261 L 96,263 L 95,264 L 95,266 L 94,267 L 94,269 L 93,270 L 93,272 L 92,273 L 92,275 L 91,276 L 91,278 L 90,279 L 90,281 L 89,282 L 89,284 L 88,285 L 88,287 L 87,288 L 87,290 L 86,291 L 86,293 L 85,294 L 85,296 L 84,297 L 84,299 L 83,300 L 83,302 L 82,303 L 82,305 L 81,306 L 81,308 L 80,309 L 80,311 L 79,312 L 79,314 L 78,315 L 78,317 L 77,318 L 77,320 L 76,321 L 76,323 L 75,324 L 75,326 L 74,327 L 74,329 L 73,330 L 73,332 L 72,333 L 72,335 L 71,336 L 71,338 L 70,339 L 70,341 L 69,342 L 69,344 L 68,345 L 68,347 L 67,348 L 67,350 L 66,351 L 66,353 L 65,354 L 65,356 L 64,357 L 64,359 L 63,360 L 63,362 L 62,363 L 62,365 L 61,366 L 61,368 L 60,369 L 60,371 L 59,372 L 59,374 L 58,375 L 58,377 L 57,378 L 57,380 L 56,381 L 56,383 L 55,384 L 55,386 L 54,387 L 54,389 L 53,390 L 53,392 L 52,393 L 52,395 L 51,396 L 51,398 L 50,399 L 50,402 L 49,403 L 49,406 L 50,407 L 50,409 L 51,410 L 51,411 L 52,412 L 52,413 L 53,414 L 53,415 L 55,417 L 55,418 L 56,419 L 57,419 L 59,421 L 60,421 L 61,422 L 62,422 L 63,423 L 76,423 L 77,422 L 79,422 L 80,421 L 82,421 L 83,420 L 85,420 L 86,419 L 88,419 L 89,418 L 91,418 L 92,417 L 94,417 L 95,416 L 97,416 L 98,415 L 100,415 L 101,414 L 103,414 L 104,413 L 106,413 L 107,412 L 109,412 L 110,411 L 112,411 L 113,410 L 115,410 L 116,409 L 118,409 L 119,408 L 121,408 L 122,407 L 124,407 L 125,406 L 127,406 L 128,405 L 130,405 L 131,404 L 133,404 L 134,403 L 136,403 L 137,402 L 139,402 L 140,401 L 142,401 L 143,400 L 145,400 L 146,399 L 148,399 L 149,398 L 151,398 L 152,397 L 154,397 L 155,396 L 157,396 L 158,395 L 160,395 L 161,394 L 163,394 L 164,393 L 166,393 L 167,392 L 169,392 L 170,391 L 172,391 L 173,390 L 175,390 L 176,389 L 178,389 L 179,388 L 181,388 L 182,387 L 184,387 L 185,386 L 187,386 L 188,385 L 190,385 L 191,384 L 193,384 L 194,383 L 196,383 L 197,382 L 199,382 L 200,381 L 202,381 L 203,380 L 205,380 L 206,379 L 208,379 L 209,378 L 211,378 L 212,377 L 214,377 L 215,376 L 217,376 L 218,375 L 220,375 L 221,374 L 223,374 L 224,373 L 226,373 L 227,372 L 229,372 L 230,371 L 232,371 L 233,370 L 235,370 L 236,369 L 238,369 L 239,368 L 241,368 L 242,367 L 244,367 L 245,366 L 247,366 L 248,365 L 250,365 L 251,364 L 253,364 L 254,363 L 256,363 L 257,362 L 259,362 L 260,361 L 262,361 L 263,360 L 265,360 L 266,359 L 268,359 L 269,358 L 271,358 L 272,357 L 274,357 L 275,356 L 277,356 L 278,355 L 280,355 L 281,354 L 283,354 L 284,353 L 286,353 L 287,352 L 288,352 L 289,351 L 290,351 L 292,349 L 293,349 L 295,347 L 295,346 L 296,345 L 296,344 L 297,343 L 297,342 L 298,341 L 298,328 L 297,327 L 297,325 L 296,324 L 296,323 L 293,320 L 293,319 L 292,319 L 288,315 L 288,314 L 287,313 L 286,313 L 279,306 L 279,305 L 278,305 L 271,298 L 271,297 L 270,297 L 263,290 L 263,289 L 262,289 L 255,282 L 255,281 L 254,281 L 247,274 L 247,273 L 246,273 L 240,267 L 240,266 L 239,265 L 238,265 L 232,259 L 232,258 L 231,257 L 230,257 L 224,251 L 224,250 L 223,249 L 222,249 L 215,242 L 215,241 L 214,241 L 208,235 L 208,234 L 207,233 L 206,233 L 199,226 L 199,225 L 198,225 L 192,219 L 192,218 L 191,217 L 190,217 L 184,211 L 184,210 L 183,209 L 182,209 L 176,203 L 176,202 L 175,201 L 174,201 L 168,195 L 168,194 L 167,193 L 166,193 L 160,187 L 160,186 L 159,185 L 158,185 L 151,178 L 150,178 L 149,177 L 148,177 L 147,176 L 146,176 L 145,175 L 143,175 L 142,174 Z" fill="none" stroke="black" stroke-width="10" /><path d="M 391,130 L 390,131 L 388,131 L 387,132 L 386,132 L 385,133 L 384,133 L 381,136 L 380,136 L 380,137 L 378,139 L 378,140 L 377,141 L 377,142 L 376,143 L 376,144 L 375,145 L 375,155 L 376,156 L 376,157 L 377,158 L 377,159 L 378,160 L 378,161 L 380,163 L 380,164 L 381,165 L 382,165 L 384,167 L 385,167 L 386,168 L 388,168 L 389,169 L 401,169 L 402,168 L 404,168 L 405,167 L 406,167 L 408,165 L 409,165 L 409,164 L 412,161 L 412,160 L 413,159 L 413,157 L 414,156 L 414,144 L 413,143 L 413,141 L 412,140 L 412,139 L 407,134 L 406,134 L 405,133 L 404,133 L 403,132 L 402,132 L 401,131 L 400,131 L 399,130 Z" fill="none" stroke="black" stroke-width="10" /><path d="M 133,58 L 132,59 L 131,59 L 130,60 L 129,60 L 128,61 L 127,61 L 125,63 L 124,63 L 123,64 L 123,65 L 121,67 L 121,68 L 120,69 L 120,70 L 119,71 L 119,73 L 118,74 L 118,82 L 119,83 L 119,84 L 120,85 L 120,86 L 121,87 L 121,88 L 122,89 L 122,90 L 126,94 L 127,94 L 128,95 L 129,95 L 130,96 L 132,96 L 133,97 L 144,97 L 145,96 L 146,96 L 147,95 L 149,95 L 151,93 L 152,93 L 153,92 L 153,91 L 155,89 L 155,88 L 156,87 L 156,86 L 157,85 L 157,80 L 158,79 L 158,76 L 157,75 L 157,71 L 156,70 L 156,69 L 155,68 L 155,67 L 154,66 L 154,65 L 151,62 L 150,62 L 149,61 L 148,61 L 147,60 L 146,60 L 145,59 L 144,59 L 143,58 Z" fill="none" stroke="black" stroke-width="10" /><path d="M 369,51 L 368,52 L 360,52 L 359,53 L 352,53 L 351,54 L 349,54 L 348,55 L 346,55 L 345,56 L 344,56 L 343,57 L 342,57 L 341,58 L 340,58 L 339,59 L 337,59 L 336,60 L 335,60 L 334,61 L 333,61 L 332,62 L 331,62 L 330,63 L 329,63 L 328,64 L 327,64 L 313,78 L 313,79 L 312,80 L 312,81 L 311,82 L 311,83 L 310,84 L 310,85 L 309,86 L 309,87 L 308,88 L 308,89 L 307,90 L 307,91 L 306,92 L 306,93 L 305,94 L 305,96 L 304,97 L 304,101 L 303,102 L 303,107 L 302,108 L 302,117 L 301,118 L 301,130 L 300,131 L 300,136 L 299,137 L 299,141 L 298,142 L 298,144 L 297,145 L 297,147 L 296,148 L 296,150 L 287,159 L 286,159 L 284,161 L 283,161 L 281,163 L 279,163 L 278,164 L 276,164 L 275,165 L 273,165 L 272,166 L 270,166 L 269,167 L 265,167 L 264,168 L 256,168 L 255,169 L 249,169 L 248,170 L 244,170 L 243,171 L 242,171 L 241,172 L 240,172 L 239,173 L 238,173 L 234,177 L 234,178 L 232,180 L 232,181 L 231,182 L 231,184 L 230,185 L 230,188 L 229,189 L 229,190 L 230,191 L 230,194 L 231,195 L 231,197 L 232,198 L 232,199 L 233,200 L 233,201 L 238,206 L 239,206 L 240,207 L 241,207 L 242,208 L 245,208 L 246,209 L 254,209 L 255,208 L 263,208 L 264,207 L 271,207 L 272,206 L 277,206 L 278,205 L 280,205 L 281,204 L 283,204 L 284,203 L 286,203 L 287,202 L 289,202 L 290,201 L 292,201 L 293,200 L 295,200 L 296,199 L 298,199 L 299,198 L 300,198 L 302,196 L 303,196 L 304,195 L 305,195 L 307,193 L 308,193 L 310,191 L 311,191 L 313,189 L 314,189 L 315,188 L 316,188 L 320,184 L 320,183 L 324,179 L 324,178 L 328,174 L 328,173 L 330,171 L 330,170 L 331,169 L 331,168 L 332,167 L 332,166 L 333,165 L 333,163 L 334,162 L 334,160 L 335,159 L 335,157 L 336,156 L 336,154 L 337,153 L 337,151 L 338,150 L 338,145 L 339,144 L 339,137 L 340,136 L 340,128 L 341,127 L 341,115 L 342,114 L 342,109 L 343,108 L 343,106 L 344,105 L 344,104 L 352,96 L 353,96 L 354,95 L 355,95 L 356,94 L 357,94 L 358,93 L 360,93 L 361,92 L 366,92 L 367,91 L 376,91 L 377,90 L 381,90 L 382,89 L 384,89 L 385,88 L 386,88 L 388,86 L 389,86 L 390,85 L 390,84 L 392,82 L 392,81 L 393,80 L 393,78 L 394,77 L 394,65 L 393,64 L 393,62 L 392,61 L 392,60 L 387,55 L 386,55 L 384,53 L 383,53 L 382,52 L 380,52 L 379,51 Z" fill="none" stroke="black" stroke-width="10" /><path d="M 215,49 L 214,50 L 212,50 L 211,51 L 209,51 L 208,52 L 207,52 L 205,54 L 204,54 L 202,56 L 202,57 L 200,59 L 200,60 L 199,61 L 199,62 L 198,63 L 198,65 L 197,66 L 197,73 L 198,74 L 198,78 L 199,79 L 199,84 L 200,85 L 200,101 L 199,102 L 199,106 L 198,107 L 198,109 L 197,110 L 197,111 L 196,112 L 196,113 L 195,114 L 195,116 L 194,117 L 194,118 L 192,120 L 192,121 L 190,123 L 190,124 L 188,126 L 188,127 L 187,128 L 187,129 L 185,131 L 185,132 L 184,133 L 184,134 L 183,135 L 183,137 L 182,138 L 182,146 L 183,147 L 183,149 L 184,150 L 184,151 L 186,153 L 186,154 L 190,158 L 191,158 L 192,159 L 193,159 L 194,160 L 196,160 L 197,161 L 207,161 L 208,160 L 210,160 L 211,159 L 212,159 L 213,158 L 214,158 L 218,154 L 218,153 L 220,151 L 220,150 L 222,148 L 222,147 L 223,146 L 223,145 L 225,143 L 225,142 L 227,140 L 227,139 L 229,137 L 229,136 L 230,135 L 230,133 L 231,132 L 231,131 L 232,130 L 232,129 L 233,128 L 233,126 L 234,125 L 234,124 L 235,123 L 235,121 L 236,120 L 236,119 L 237,118 L 237,116 L 238,115 L 238,109 L 239,108 L 239,101 L 240,100 L 240,84 L 239,83 L 239,79 L 238,78 L 238,73 L 237,72 L 237,67 L 236,66 L 236,63 L 235,62 L 235,60 L 233,58 L 233,57 L 229,53 L 228,53 L 227,52 L 226,52 L 225,51 L 224,51 L 223,50 L 220,50 L 219,49 Z" fill="none" stroke="black" stroke-width="10" /></svg>